<?xml version="1.0" encoding="UTF-8"?>
<svg id="Ebene_2" data-name="Ebene 2" xmlns="http://www.w3.org/2000/svg" viewBox="0 0 59.8 59.8">
  <defs>
    <style>
      .cls-1 {
        fill: #f8ac00;
      }
    </style>
  </defs>
  <g id="_Radiale_Wiederholung_" data-name="&amp;lt;Radiale Wiederholung&amp;gt;">
    <path class="cls-1" d="M40.75,57.42l-2.69,1.26c-.25.12-.54,0-.66-.24l-7.09-15.06c-.07-.15-.15-.29-.3-.29s-.22.15-.29.3l-6.87,15.2c-.11.25-.41.36-.66.25l-2.7-1.21c-.26-.11-.37-.42-.26-.67l7.93-17.58c.18-.37.36-.44.66-.44l4.32-.03c.29,0,.48.07.66.43l8.19,17.44c.12.25,0,.54-.24.66Z"/>
  </g>
  <g id="_Radiale_Wiederholung_-2" data-name="&amp;lt;Radiale Wiederholung&amp;gt;">
    <path class="cls-1" d="M7.08,48.72l-2.03-2.17c-.19-.2-.18-.52.02-.7l12.13-11.4c.12-.12.23-.23.19-.37s-.21-.16-.37-.19L.45,32.05c-.27-.03-.47-.28-.44-.55l.31-2.94c.03-.28.28-.48.56-.45l19.17,2.11c.41.06.53.21.63.49l1.37,4.1c.09.28.08.47-.21.76l-14.05,13.17c-.2.19-.51.18-.7-.02Z"/>
  </g>
  <g id="_Radiale_Wiederholung_-3" data-name="&amp;lt;Radiale Wiederholung&amp;gt;">
    <path class="cls-1" d="M4.95,14.02l1.44-2.6c.13-.24.44-.33.68-.2l14.59,8.02c.15.07.29.15.41.06s.09-.25.06-.41l-3.38-16.34c-.06-.27.12-.53.39-.59l2.89-.61c.27-.06.54.12.6.39l3.92,18.89c.07.4-.03.57-.27.75l-3.48,2.57c-.24.17-.43.22-.79.04L5.14,14.69c-.24-.13-.33-.43-.19-.67Z"/>
  </g>
  <g id="_Radiale_Wiederholung_-4" data-name="&amp;lt;Radiale Wiederholung&amp;gt;">
    <path class="cls-1" d="M37.3,1.26l2.92.57c.27.05.45.31.39.58l-3.12,16.35c-.03.16-.05.32.07.41s.26,0,.41-.07l14.5-8.26c.24-.14.54-.05.68.19l1.47,2.56c.14.24.06.55-.19.69l-16.75,9.57c-.36.19-.55.14-.79-.03l-3.52-2.51c-.24-.17-.34-.34-.28-.74l3.62-18.92c.05-.27.31-.44.58-.39Z"/>
  </g>
  <g id="_Radiale_Wiederholung_-5" data-name="&amp;lt;Radiale Wiederholung&amp;gt;">
    <path class="cls-1" d="M59.42,28.08l.36,2.95c.03.27-.16.52-.43.56l-16.51,2.09c-.16.03-.32.05-.37.19s.07.25.19.37l12.34,11.23c.2.19.22.5.03.71l-1.98,2.19c-.19.21-.51.22-.72.04l-14.27-12.98c-.29-.29-.31-.48-.22-.76l1.3-4.12c.09-.28.21-.43.62-.5l19.11-2.4c.27-.03.52.16.55.43Z"/>
  </g>
</svg>