<?xml version="1.0" encoding="UTF-8"?>
<svg id="Ebene_2" data-name="Ebene 2" xmlns="http://www.w3.org/2000/svg" viewBox="0 0 238.04 75">
  <defs>
    <style>
      .cls-1 {
        fill: #fff;
      }
    </style>
  </defs>
  <g id="Ebene_1-2" data-name="Ebene 1">
    <g>
      <g>
        <g id="_Radiale_Wiederholung_" data-name="&amp;lt;Radiale Wiederholung&amp;gt;">
          <path class="cls-1" d="M53.04,73.1l-3.51,1.63c-.32.15-.71.01-.86-.31l-9.23-19.6c-.1-.19-.19-.38-.38-.38s-.28.19-.38.38l-8.95,19.79c-.15.33-.53.47-.86.33l-3.51-1.57c-.33-.15-.48-.54-.33-.87l10.32-22.89c.23-.48.47-.58.85-.58l5.63-.04c.38,0,.62.09.86.57l10.66,22.69c.15.32.01.71-.31.86Z"/>
        </g>
        <g id="_Radiale_Wiederholung_-2" data-name="&amp;lt;Radiale Wiederholung&amp;gt;">
          <path class="cls-1" d="M9.22,61.79l-2.64-2.83c-.24-.26-.23-.67.03-.92l15.79-14.83c.15-.15.3-.3.24-.48s-.27-.21-.48-.24L.58,40.09c-.36-.04-.61-.36-.58-.72l.41-3.83c.04-.36.37-.63.73-.59l24.96,2.74c.53.08.69.27.81.63l1.78,5.34c.12.36.11.62-.27,1l-18.29,17.15c-.26.24-.67.23-.91-.03Z"/>
        </g>
        <g id="_Radiale_Wiederholung_-3" data-name="&amp;lt;Radiale Wiederholung&amp;gt;">
          <path class="cls-1" d="M6.44,16.61l1.88-3.38c.17-.31.57-.43.88-.25l18.99,10.44c.19.1.38.19.53.08s.12-.32.08-.53L24.4,1.69c-.07-.35.15-.69.5-.77l3.77-.79c.36-.08.71.15.78.51l5.1,24.58c.09.53-.04.74-.35.97l-4.53,3.34c-.31.23-.56.29-1.03.05L6.69,17.49c-.31-.17-.42-.56-.25-.87Z"/>
        </g>
        <g id="_Radiale_Wiederholung_-4" data-name="&amp;lt;Radiale Wiederholung&amp;gt;">
          <path class="cls-1" d="M48.54.01l3.8.74c.35.07.58.41.51.76l-4.06,21.28c-.03.21-.07.42.09.53s.34.01.53-.09l18.87-10.75c.31-.18.71-.07.89.24l1.92,3.34c.18.32.07.72-.24.9l-21.8,12.45c-.47.25-.72.19-1.03-.03l-4.58-3.27c-.31-.22-.45-.44-.37-.96L47.79.52c.07-.35.41-.58.75-.51Z"/>
        </g>
        <g id="_Radiale_Wiederholung_-5" data-name="&amp;lt;Radiale Wiederholung&amp;gt;">
          <path class="cls-1" d="M77.34,34.92l.47,3.84c.04.35-.21.68-.56.72l-21.5,2.72c-.21.03-.42.07-.48.25s.1.33.25.48l16.05,14.62c.27.24.29.65.04.92l-2.58,2.86c-.25.27-.66.29-.93.05l-18.58-16.89c-.38-.37-.4-.63-.29-.99l1.7-5.36c.12-.36.28-.56.8-.65l24.88-3.12c.35-.04.67.21.72.56Z"/>
        </g>
      </g>
      <path class="cls-1" d="M106.34,14.49v14.1h7.32v2.9h-10.8V14.49h3.47ZM118.57,26.44c.12,1.7,1.22,2.72,3.02,2.72,1.4,0,2.67-.33,3.85-.75l.77,2.42c-1.2.57-2.95,1.02-4.87,1.02-4.17,0-6.2-2.87-6.2-6.42s2.1-6.37,6.02-6.37,5.62,2.37,5.62,5.2c0,.78-.1,1.75-.17,2.17h-8.05ZM123.69,24.34c.03-.12.03-.25.03-.38,0-1.35-.62-2.45-2.52-2.45-1.7,0-2.55,1.38-2.62,2.82h5.12ZM131.99,19.44l.48,1.45h.05c.45-.77,1.45-1.82,3.05-1.82.42,0,.9.08,1.2.15l-.3,2.83c-.38-.08-.9-.1-1.2-.1-1.4,0-2.2.65-2.62,1.17v8.37h-3.37v-12.05h2.72ZM141.42,19.44l.45,1.17h.05c.7-.62,1.95-1.55,3.85-1.55,2.82,0,4.45,1.92,4.45,4.82v7.6h-3.37v-7.25c0-1.58-.67-2.4-2.15-2.4-1.15,0-2.07.62-2.6,1.02v8.62h-3.37v-12.05h2.7ZM114.52,41.99v2.9h-4.8v14.1h-3.47v-14.1h-4.77v-2.9h13.05ZM117.74,53.94c.12,1.7,1.22,2.72,3.02,2.72,1.4,0,2.67-.33,3.85-.75l.78,2.42c-1.2.57-2.95,1.02-4.87,1.02-4.17,0-6.2-2.87-6.2-6.42s2.1-6.37,6.02-6.37,5.62,2.37,5.62,5.2c0,.78-.1,1.75-.17,2.17h-8.05ZM122.87,51.84c.02-.12.02-.25.02-.38,0-1.35-.62-2.45-2.52-2.45-1.7,0-2.55,1.38-2.62,2.82h5.12ZM134.22,46.57c1.47,0,2.95.42,3.75.72l-.67,2.57c-.7-.22-1.6-.52-2.67-.52-1.83,0-3.35,1-3.35,3.62s1.47,3.62,3.35,3.62c1.07,0,1.97-.3,2.67-.52l.67,2.57c-.8.3-2.27.72-3.75.72-4.1,0-6.4-2.5-6.4-6.4s2.3-6.4,6.4-6.4ZM148.54,58.99v-7.25c0-1.52-.67-2.4-2.15-2.4-1.22,0-2.1.65-2.6,1.15v8.5h-3.37v-17.5h3.37v6.45h.05c.65-.6,2-1.38,3.6-1.38,2.87,0,4.47,1.95,4.47,4.85v7.57h-3.37ZM157.64,46.94l.45,1.17h.05c.7-.62,1.95-1.55,3.85-1.55,2.82,0,4.45,1.92,4.45,4.82v7.6h-3.37v-7.25c0-1.58-.67-2.4-2.15-2.4-1.15,0-2.08.62-2.6,1.02v8.62h-3.37v-12.05h2.7ZM175.17,59.36c-4.12,0-6.35-2.9-6.35-6.4s2.22-6.4,6.35-6.4,6.37,2.9,6.37,6.4-2.17,6.4-6.37,6.4ZM175.17,56.59c1.77,0,2.92-1.2,2.92-3.62s-1.15-3.62-2.92-3.62-2.9,1.2-2.9,3.62,1.17,3.62,2.9,3.62ZM187.37,41.49v14.8c0,.38.02.45.4.45h1.33v2.3c-.53.1-1.28.17-2,.17-2.3,0-3.1-1.12-3.1-3.52v-14.2h3.38ZM196.99,59.36c-4.12,0-6.35-2.9-6.35-6.4s2.22-6.4,6.35-6.4,6.37,2.9,6.37,6.4-2.17,6.4-6.37,6.4ZM196.99,56.59c1.77,0,2.92-1.2,2.92-3.62s-1.15-3.62-2.92-3.62-2.9,1.2-2.9,3.62,1.17,3.62,2.9,3.62ZM217.37,58.21c0,4.05-2.27,6.1-6.22,6.1-1.97,0-3.55-.55-4.72-1.17l.97-2.47c1,.52,2.25.88,3.75.88,1.97,0,2.85-.7,2.85-2.7v-.9h-.05c-.72.53-1.72,1.2-3.42,1.2-3.47,0-5.25-2.75-5.25-6.25s1.77-6.32,5.25-6.32c1.8,0,2.82.85,3.72,1.47h.05l.45-1.1h2.62v11.27ZM213.99,50.09c-.67-.4-1.55-.75-2.42-.75-2,0-2.85,1.4-2.85,3.55s.85,3.47,2.85,3.47c.87,0,1.75-.3,2.42-.67v-5.6ZM222.22,41.14c1.2,0,1.97.77,1.97,1.85s-.77,1.85-1.97,1.85-1.95-.77-1.95-1.85.77-1.85,1.95-1.85ZM220.52,58.99v-12.05h3.37v12.05h-3.37ZM229.82,53.94c.12,1.7,1.22,2.72,3.02,2.72,1.4,0,2.67-.33,3.85-.75l.78,2.42c-1.2.57-2.95,1.02-4.87,1.02-4.17,0-6.2-2.87-6.2-6.42s2.1-6.37,6.02-6.37,5.62,2.37,5.62,5.2c0,.78-.1,1.75-.17,2.17h-8.05ZM234.94,51.84c.02-.12.02-.25.02-.38,0-1.35-.62-2.45-2.52-2.45-1.7,0-2.55,1.38-2.62,2.82h5.12Z"/>
    </g>
  </g>
</svg>